# xmcd CD database file
#
# Track frame offsets:
#	150
#	20081
#	31328
#	44981
#	59681
#	79440
#	92923
#	121335
#	144965
#	170008
#	195731
#	219747
#	257089
#
# Disc length: 4062 seconds
#
# Revision: 0
# Processed by: cddbd v1.5.2PL0 Copyright (c) Steve Scherf et al.
# Submitted via: CDex 1.51
#
DISCID=cb0fdc0d
DTITLE=Kansas City jazz Orchestra - Live on the Plaza
DYEAR=2007
DGENRE=Jazz
TTITLE0=Stompin' At The Savoy
TTITLE1=All Of Me
TTITLE2=Stardust
TTITLE3=You Are So Beautiful
TTITLE4=Tiger Rag
TTITLE5=Purple Gazelle
TTITLE6=It Don't Mean a Thing
TTITLE7=A Sunday Kind Of Love
TTITLE8=My Favorite Things
TTITLE9=Shiny Stockings
TTITLE10=Dizzyland
TTITLE11=Caravan
TTITLE12=Kenton Kollage
EXTD=YEAR: 2007
EXTT0=
EXTT1=
EXTT2=
EXTT3=
EXTT4=
EXTT5=
EXTT6=
EXTT7=
EXTT8=
EXTT9=
EXTT10=
EXTT11=
EXTT12=
PLAYORDER=
